<svg width="1333" height="1256" viewBox="0 0 1333 1256" fill="none" xmlns="http://www.w3.org/2000/svg">
<path fill-rule="evenodd" clip-rule="evenodd" d="M0 1256V0H265.75C323.389 0 372.527 8.81696 412.992 26.6639C454.401 44.4137 488.285 68.1525 514.504 97.9469C540.668 127.679 559.101 162.167 569.8 201.345C581.606 239.156 587.5 278.715 587.5 320V365.5C587.5 399.536 584.574 428.515 578.63 452.347C573.867 476.103 566.109 497.036 555.287 515.072L555.281 515.084L555.274 515.095C536.246 546.435 507.907 573.416 470.495 596.122C509.2 616.24 538.166 644.773 557.195 681.71C577.537 721.197 587.5 774.591 587.5 841.5V911.5C587.5 1021.92 560.481 1107.3 505.7 1166.86C451.868 1226.66 365.627 1256 248.25 1256H0ZM502 1163.5C555.667 1105.17 582.5 1021.17 582.5 911.5V841.5C582.5 775 572.583 722.5 552.75 684C533.78 647.176 504.67 618.89 465.421 599.143C463.635 598.244 461.828 597.363 460 596.5C461.758 595.495 463.497 594.482 465.216 593.46C503.426 570.747 532.021 543.76 551 512.5C561.5 495 569.083 474.583 573.75 451.25C579.583 427.917 582.5 399.333 582.5 365.5V320C582.5 279.167 576.667 240.083 565 202.75C554.5 164.25 536.417 130.417 510.75 101.25C485.083 72.0833 451.833 48.75 411 31.25C371.333 13.75 322.917 5 265.75 5H5V1251H248.25C364.917 1251 449.5 1221.83 502 1163.5ZM342.212 1052.3L342.264 1052.28C362.461 1042.18 377.429 1028.26 387.392 1010.55C397.483 992.609 403.738 971.152 406.021 946.047C408.338 920.555 409.5 892.708 409.5 862.5C409.5 831.172 407.759 804.014 404.305 780.992C400.896 758.26 394.119 739.163 384.11 723.557C373.077 708.152 358.21 697.126 339.336 690.465L339.215 690.422L339.096 690.373C320.098 682.55 294.571 678.5 262.25 678.5H188.5V1067.5H260.5C296.297 1067.5 323.359 1062.28 342.161 1052.33L342.212 1052.3ZM183.5 1072.5V673.5H262.25C294.917 673.5 321.167 677.583 341 685.75C360.833 692.75 376.583 704.417 388.25 720.75C398.75 737.083 405.75 756.917 409.25 780.25C412.75 803.583 414.5 831 414.5 862.5C414.5 892.833 413.333 920.833 411 946.5C408.667 972.167 402.25 994.333 391.75 1013C381.25 1031.67 365.5 1046.25 344.5 1056.75C324.667 1067.25 296.667 1072.5 260.5 1072.5H183.5ZM378.877 469.421L378.889 469.404C399.072 440.251 409.5 397.669 409.5 341C409.5 285.571 397.933 244.93 375.659 218.201L375.619 218.153L375.58 218.104C354.844 191.911 315.971 178 257 178H188.5V511H264C322.985 511 360.459 496.506 378.865 469.438L378.877 469.421ZM264 516C323.5 516 363.167 501.417 383 472.25C404 441.917 414.5 398.167 414.5 341C414.5 285 402.833 243 379.5 215C357.333 187 316.5 173 257 173H183.5V516H264ZM745.117 1256V0H1010.87C1068.51 0 1117.64 8.81696 1158.11 26.6639C1199.52 44.4137 1233.4 68.1525 1259.62 97.9469C1285.79 127.679 1304.22 162.167 1314.92 201.345C1326.72 239.156 1332.62 278.715 1332.62 320V365.5C1332.62 399.535 1329.69 428.514 1323.75 452.346C1318.98 476.102 1311.23 497.036 1300.4 515.072L1300.4 515.084L1300.39 515.095C1281.36 546.435 1253.02 573.416 1215.61 596.122C1254.32 616.24 1283.28 644.773 1302.31 681.71C1322.65 721.197 1332.62 774.591 1332.62 841.5V911.5C1332.62 1021.92 1305.6 1107.3 1250.82 1166.86C1196.99 1226.66 1110.75 1256 993.367 1256H745.117ZM1247.12 1163.5C1300.78 1105.17 1327.62 1021.17 1327.62 911.5V841.5C1327.62 775 1317.7 722.5 1297.87 684C1278.9 647.176 1249.79 618.89 1210.54 599.143C1208.75 598.244 1206.95 597.363 1205.12 596.5C1206.88 595.495 1208.61 594.482 1210.33 593.46C1248.54 570.747 1277.14 543.76 1296.12 512.5C1306.62 495 1314.2 474.583 1318.87 451.25C1324.7 427.917 1327.62 399.333 1327.62 365.5V320C1327.62 279.167 1321.78 240.083 1310.12 202.75C1299.62 164.25 1281.53 130.417 1255.87 101.25C1230.2 72.0833 1196.95 48.75 1156.12 31.25C1116.45 13.75 1068.03 5 1010.87 5H750.117V1251H993.367C1110.03 1251 1194.62 1221.83 1247.12 1163.5ZM1087.33 1052.3L1087.38 1052.28C1107.58 1042.18 1122.55 1028.26 1132.51 1010.55C1142.6 992.609 1148.86 971.152 1151.14 946.047C1153.46 920.555 1154.62 892.708 1154.62 862.5C1154.62 831.172 1152.88 804.014 1149.42 780.992C1146.01 758.26 1139.24 739.163 1129.23 723.557C1118.19 708.153 1103.33 697.126 1084.45 690.465L1084.33 690.422L1084.21 690.373C1065.21 682.55 1039.69 678.5 1007.37 678.5H933.617V1067.5H1005.62C1041.41 1067.5 1068.48 1062.28 1087.28 1052.33L1087.33 1052.3ZM928.617 1072.5V673.5H1007.37C1040.03 673.5 1066.28 677.583 1086.12 685.75C1105.95 692.75 1121.7 704.417 1133.37 720.75C1143.87 737.083 1150.87 756.917 1154.37 780.25C1157.87 803.583 1159.62 831 1159.62 862.5C1159.62 892.833 1158.45 920.833 1156.12 946.5C1153.78 972.167 1147.37 994.333 1136.87 1013C1126.37 1031.67 1110.62 1046.25 1089.62 1056.75C1069.78 1067.25 1041.78 1072.5 1005.62 1072.5H928.617ZM1123.99 469.421L1124.01 469.404C1144.19 440.251 1154.62 397.669 1154.62 341C1154.62 285.571 1143.05 244.93 1120.78 218.201L1120.74 218.153L1120.7 218.104C1099.96 191.911 1061.09 178 1002.12 178H933.617V511H1009.12C1068.1 511 1105.58 496.506 1123.98 469.438L1123.99 469.421ZM1009.12 516C1068.62 516 1108.28 501.417 1128.12 472.25C1149.12 441.917 1159.62 398.167 1159.62 341C1159.62 285 1147.95 243 1124.62 215C1102.45 187 1061.62 173 1002.12 173H928.617V516H1009.12Z" fill="#F6F0F0"/>
<path fill-rule="evenodd" clip-rule="evenodd" d="M0 1256V0H265.75C323.389 0 372.527 8.81696 412.992 26.6639C454.401 44.4137 488.285 68.1525 514.504 97.9469C540.668 127.679 559.101 162.167 569.8 201.345C581.606 239.156 587.5 278.715 587.5 320V365.5C587.5 399.536 584.574 428.515 578.63 452.347C573.867 476.103 566.109 497.036 555.287 515.072L555.281 515.084L555.274 515.095C536.246 546.435 507.907 573.416 470.495 596.122C509.2 616.24 538.166 644.773 557.195 681.71C577.537 721.197 587.5 774.591 587.5 841.5V911.5C587.5 1021.92 560.481 1107.3 505.7 1166.86C451.868 1226.66 365.627 1256 248.25 1256H0ZM502 1163.5C555.667 1105.17 582.5 1021.17 582.5 911.5V841.5C582.5 775 572.583 722.5 552.75 684C533.78 647.176 504.67 618.89 465.421 599.143C463.635 598.244 461.828 597.363 460 596.5C461.758 595.495 463.497 594.482 465.216 593.46C503.426 570.747 532.021 543.76 551 512.5C561.5 495 569.083 474.583 573.75 451.25C579.583 427.917 582.5 399.333 582.5 365.5V320C582.5 279.167 576.667 240.083 565 202.75C554.5 164.25 536.417 130.417 510.75 101.25C485.083 72.0833 451.833 48.75 411 31.25C371.333 13.75 322.917 5 265.75 5H5V1251H248.25C364.917 1251 449.5 1221.83 502 1163.5ZM342.212 1052.3L342.264 1052.28C362.461 1042.18 377.429 1028.26 387.392 1010.55C397.483 992.609 403.738 971.152 406.021 946.047C408.338 920.555 409.5 892.708 409.5 862.5C409.5 831.172 407.759 804.014 404.305 780.992C400.896 758.26 394.119 739.163 384.11 723.557C373.077 708.152 358.21 697.126 339.336 690.465L339.215 690.422L339.096 690.373C320.098 682.55 294.571 678.5 262.25 678.5H188.5V1067.5H260.5C296.297 1067.5 323.359 1062.28 342.161 1052.33L342.212 1052.3ZM183.5 1072.5V673.5H262.25C294.917 673.5 321.167 677.583 341 685.75C360.833 692.75 376.583 704.417 388.25 720.75C398.75 737.083 405.75 756.917 409.25 780.25C412.75 803.583 414.5 831 414.5 862.5C414.5 892.833 413.333 920.833 411 946.5C408.667 972.167 402.25 994.333 391.75 1013C381.25 1031.67 365.5 1046.25 344.5 1056.75C324.667 1067.25 296.667 1072.5 260.5 1072.5H183.5ZM378.877 469.421L378.889 469.404C399.072 440.251 409.5 397.669 409.5 341C409.5 285.571 397.933 244.93 375.659 218.201L375.619 218.153L375.58 218.104C354.844 191.911 315.971 178 257 178H188.5V511H264C322.985 511 360.459 496.506 378.865 469.438L378.877 469.421ZM264 516C323.5 516 363.167 501.417 383 472.25C404 441.917 414.5 398.167 414.5 341C414.5 285 402.833 243 379.5 215C357.333 187 316.5 173 257 173H183.5V516H264ZM745.117 1256V0H1010.87C1068.51 0 1117.64 8.81696 1158.11 26.6639C1199.52 44.4137 1233.4 68.1525 1259.62 97.9469C1285.79 127.679 1304.22 162.167 1314.92 201.345C1326.72 239.156 1332.62 278.715 1332.62 320V365.5C1332.62 399.535 1329.69 428.514 1323.75 452.346C1318.98 476.102 1311.23 497.036 1300.4 515.072L1300.4 515.084L1300.39 515.095C1281.36 546.435 1253.02 573.416 1215.61 596.122C1254.32 616.24 1283.28 644.773 1302.31 681.71C1322.65 721.197 1332.62 774.591 1332.62 841.5V911.5C1332.62 1021.92 1305.6 1107.3 1250.82 1166.86C1196.99 1226.66 1110.75 1256 993.367 1256H745.117ZM1247.12 1163.5C1300.78 1105.17 1327.62 1021.17 1327.62 911.5V841.5C1327.62 775 1317.7 722.5 1297.87 684C1278.9 647.176 1249.79 618.89 1210.54 599.143C1208.75 598.244 1206.95 597.363 1205.12 596.5C1206.88 595.495 1208.61 594.482 1210.33 593.46C1248.54 570.747 1277.14 543.76 1296.12 512.5C1306.62 495 1314.2 474.583 1318.87 451.25C1324.7 427.917 1327.62 399.333 1327.62 365.5V320C1327.62 279.167 1321.78 240.083 1310.12 202.75C1299.62 164.25 1281.53 130.417 1255.87 101.25C1230.2 72.0833 1196.95 48.75 1156.12 31.25C1116.45 13.75 1068.03 5 1010.87 5H750.117V1251H993.367C1110.03 1251 1194.62 1221.83 1247.12 1163.5ZM1087.33 1052.3L1087.38 1052.28C1107.58 1042.18 1122.55 1028.26 1132.51 1010.55C1142.6 992.609 1148.86 971.152 1151.14 946.047C1153.46 920.555 1154.62 892.708 1154.62 862.5C1154.62 831.172 1152.88 804.014 1149.42 780.992C1146.01 758.26 1139.24 739.163 1129.23 723.557C1118.19 708.153 1103.33 697.126 1084.45 690.465L1084.33 690.422L1084.21 690.373C1065.21 682.55 1039.69 678.5 1007.37 678.5H933.617V1067.5H1005.62C1041.41 1067.5 1068.48 1062.28 1087.28 1052.33L1087.33 1052.3ZM928.617 1072.5V673.5H1007.37C1040.03 673.5 1066.28 677.583 1086.12 685.75C1105.95 692.75 1121.7 704.417 1133.37 720.75C1143.87 737.083 1150.87 756.917 1154.37 780.25C1157.87 803.583 1159.62 831 1159.62 862.5C1159.62 892.833 1158.45 920.833 1156.12 946.5C1153.78 972.167 1147.37 994.333 1136.87 1013C1126.37 1031.67 1110.62 1046.25 1089.62 1056.75C1069.78 1067.25 1041.78 1072.5 1005.62 1072.5H928.617ZM1123.99 469.421L1124.01 469.404C1144.19 440.251 1154.62 397.669 1154.62 341C1154.62 285.571 1143.05 244.93 1120.78 218.201L1120.74 218.153L1120.7 218.104C1099.96 191.911 1061.09 178 1002.12 178H933.617V511H1009.12C1068.1 511 1105.58 496.506 1123.98 469.438L1123.99 469.421ZM1009.12 516C1068.62 516 1108.28 501.417 1128.12 472.25C1149.12 441.917 1159.62 398.167 1159.62 341C1159.62 285 1147.95 243 1124.62 215C1102.45 187 1061.62 173 1002.12 173H928.617V516H1009.12Z" fill="#FF0000"/>
</svg>
