<svg width="1279" height="1258" viewBox="0 0 1279 1258" fill="none" xmlns="http://www.w3.org/2000/svg">
<path d="M385.531 724.287L385.524 724.276L385.517 724.265C374.421 708.774 359.468 697.687 340.502 690.993L340.502 690.993L340.393 690.955L340.287 690.911L340.287 690.911C321.205 683.054 295.605 679 263.25 679H189.5H189V679.5V1068.5V1069H189.5H261.5C297.334 1069 324.49 1063.78 343.395 1053.77L343.161 1053.33L343.395 1053.77L343.436 1053.75L343.446 1053.75L343.488 1053.73C363.765 1043.59 378.811 1029.6 388.828 1011.79C398.96 993.781 405.231 972.253 407.518 947.093C409.838 921.583 411 893.72 411 863.5C411 832.154 409.258 804.971 405.8 781.917C402.382 759.131 395.585 739.964 385.531 724.287Z" stroke="#FF0202"/>
<path d="M380.3 470.689L380.3 470.689C400.565 441.418 411 398.719 411 342C411 286.514 399.423 245.737 377.043 218.881L377.011 218.842L377.003 218.833L376.972 218.793C356.093 192.42 317.024 178.5 258 178.5H189.5H189V179V512V512.5H189.5H265C324.036 512.5 361.73 497.997 380.279 470.72L379.865 470.438L380.279 470.72L380.288 470.706L380.291 470.702L380.3 470.689Z" stroke="#FF0202"/>
<path d="M472.512 597.089C509.604 574.445 537.753 547.564 556.701 516.354L556.274 516.095L556.701 516.354L556.708 516.343L556.71 516.34L556.716 516.33C567.57 498.24 575.345 477.255 580.118 453.457C586.073 429.575 589 400.556 589 366.5V321C589 279.67 583.099 240.063 571.28 202.205C560.561 162.959 542.093 128.405 515.879 98.6166C489.605 68.7596 455.658 44.9803 414.192 27.2056C373.647 9.32376 324.436 0.5 266.75 0.5H1H0.5V1V1257V1257.5H1H249.25C366.696 1257.5 453.103 1228.15 507.068 1168.2C561.962 1108.52 589 1023 589 912.5V842.5C589 775.55 579.032 722.067 558.639 682.481C539.69 645.697 510.91 617.229 472.512 597.089Z" stroke="#FF0202"/>
<path d="M1074.53 724.287L1074.52 724.276L1074.52 724.265C1063.42 708.774 1048.47 697.687 1029.5 690.993L1029.5 690.993L1029.39 690.955L1029.29 690.911L1029.29 690.911C1010.2 683.054 984.605 679 952.25 679H878.5H878V679.5V1068.5V1069H878.5H950.5C986.334 1069 1013.49 1063.78 1032.39 1053.77L1032.16 1053.33L1032.39 1053.77L1032.44 1053.75L1032.45 1053.75L1032.49 1053.73C1052.76 1043.59 1067.81 1029.6 1077.83 1011.79C1087.96 993.781 1094.23 972.253 1096.52 947.093C1098.84 921.583 1100 893.72 1100 863.5C1100 832.154 1098.26 804.971 1094.8 781.917C1091.38 759.131 1084.58 739.964 1074.53 724.287Z" stroke="#FF0202"/>
<path d="M1069.3 470.689L1069.3 470.689C1089.56 441.418 1100 398.719 1100 342C1100 286.514 1088.42 245.737 1066.04 218.881L1066.01 218.842L1066 218.833L1065.97 218.793C1045.09 192.42 1006.02 178.5 947 178.5H878.5H878V179V512V512.5H878.5H954C1013.04 512.5 1050.73 497.997 1069.28 470.72L1068.87 470.438L1069.28 470.72L1069.29 470.706L1069.29 470.702L1069.3 470.689Z" stroke="#FF0202"/>
<path d="M1161.51 597.089C1198.6 574.445 1226.75 547.564 1245.7 516.354L1245.27 516.095L1245.7 516.354L1245.71 516.343L1245.71 516.34L1245.72 516.33C1256.57 498.24 1264.35 477.255 1269.12 453.457C1275.07 429.575 1278 400.556 1278 366.5V321C1278 279.67 1272.1 240.063 1260.28 202.205C1249.56 162.959 1231.09 128.405 1204.88 98.6166C1178.6 68.7596 1144.66 44.9803 1103.19 27.2056C1062.65 9.32376 1013.44 0.5 955.75 0.5H690H689.5V1V1257V1257.5H690H938.25C1055.7 1257.5 1142.1 1228.15 1196.07 1168.2C1250.96 1108.52 1278 1023 1278 912.5V842.5C1278 775.55 1268.03 722.067 1247.64 682.481C1228.69 645.697 1199.91 617.229 1161.51 597.089Z" stroke="#FF0202"/>
</svg>
