<svg viewBox="0 0 612 133" fill="currentColor" xmlns="http://www.w3.org/2000/svg">
<path d="M23.5748 110.353C21.4748 110.553 19.6748 109.953 18.1748 108.553C16.7748 107.253 16.0748 105.603 16.0748 103.603C16.0748 103.003 16.1248 102.553 16.2248 102.253C16.5248 100.653 17.2748 98.8526 18.4748 96.8526C19.7748 94.9526 21.9248 92.3026 24.9248 88.9026C33.3248 80.1026 41.7748 72.6026 50.2748 66.4026C50.8748 66.1026 51.6748 65.5526 52.6748 64.7526C54.2748 63.5526 55.0748 62.4026 55.0748 61.3026C55.0748 60.3026 54.7248 59.2526 54.0248 58.1526C52.5248 56.0526 50.4748 54.8526 47.8748 54.5526C43.4748 54.2526 39.2248 55.1026 35.1248 57.1026L31.6748 59.0526C31.4748 59.1526 31.0748 59.3526 30.4748 59.6526C29.9748 59.9526 29.5248 60.1026 29.1248 60.1026C28.6248 60.1026 28.1248 59.9026 27.6248 59.5026C27.3248 59.2026 27.1748 58.8526 27.1748 58.4526C27.1748 57.7526 27.8748 56.7026 29.2748 55.3026C31.3748 53.5026 32.4748 52.5526 32.5748 52.4526L34.9748 50.3526C37.4748 48.2526 39.9748 46.0526 42.4748 43.7526C47.0748 39.5526 51.1748 34.6526 54.7748 29.0526C57.8748 24.4526 60.1248 19.4026 61.5248 13.9026C61.7248 12.7026 61.8248 11.8526 61.8248 11.3526C61.8248 10.2526 61.4248 9.45263 60.6248 8.95263C60.1248 8.65263 59.6248 8.50264 59.1248 8.50264C58.6248 8.50264 58.0248 8.70264 57.3248 9.10264C56.7248 9.40263 56.2748 9.60263 55.9748 9.70263C53.4748 10.9026 50.4748 13.1526 46.9748 16.4526C43.4748 19.9526 39.9248 24.4526 36.3248 29.9526C32.9248 34.8526 28.9748 41.4526 24.4748 49.7526C17.8748 62.1526 12.6248 72.8526 8.7248 81.8526C8.5248 82.2526 8.1248 83.1526 7.52481 84.5526C7.0248 85.8526 6.3748 86.9526 5.5748 87.8526C5.0748 88.6526 4.4248 89.0526 3.6248 89.0526C3.0248 89.0526 2.4748 88.8026 1.9748 88.3026C1.5748 87.8026 1.3248 87.2526 1.2248 86.6526C1.0248 84.6526 0.924805 83.1526 0.924805 82.1526C0.924805 79.9526 1.0748 77.9026 1.3748 76.0026C3.1748 60.0026 6.67481 44.7026 11.8748 30.1026C12.4748 28.4026 13.7248 24.6026 15.6248 18.7026C15.8248 17.8026 16.2248 16.4526 16.8248 14.6526C17.1248 13.9526 17.4748 12.9026 17.8748 11.5026C18.0748 10.9026 18.3748 10.4526 18.7748 10.1526C19.2748 9.85263 19.7248 9.80263 20.1248 10.0026C21.1248 10.4026 21.5248 11.2026 21.3248 12.4026C20.9248 14.6026 20.5248 16.2026 20.1248 17.2026L15.1748 32.6526C10.0748 47.1526 6.72481 62.2526 5.1248 77.9526C6.1248 77.6526 6.72481 77.1526 6.92481 76.4526C7.2248 75.7526 7.42481 75.3026 7.52481 75.1026C10.9248 67.7026 15.4748 58.6026 21.1748 47.8026C25.0748 40.4026 29.1748 33.5026 33.4748 27.1026C37.1748 21.6026 40.9748 16.9526 44.8748 13.1526C47.5748 10.4526 50.5748 8.20264 53.8748 6.40264C55.9748 5.20263 57.8248 4.60263 59.4248 4.60263C61.0248 4.60263 62.3248 5.00263 63.3248 5.80263C64.4248 6.60264 65.1248 7.75264 65.4248 9.25263C65.6248 10.2526 65.7248 11.0026 65.7248 11.5026C65.7248 12.5026 65.5748 13.5526 65.2748 14.6526C64.0748 19.8526 62.1248 24.7026 59.4248 29.2026C56.0248 34.7026 51.9748 39.8026 47.2748 44.5026L43.3748 48.2526C43.2748 48.4526 43.0248 48.7526 42.6248 49.1526C42.2248 49.4526 42.1248 49.8026 42.3248 50.2026C42.5248 50.6026 42.8248 50.8026 43.2248 50.8026C43.7248 50.7026 44.0248 50.6526 44.1248 50.6526C44.8248 50.7526 45.7248 50.8026 46.8248 50.8026C47.9248 50.8026 48.8248 50.8526 49.5248 50.9526C52.5248 51.2526 54.9748 52.7526 56.8748 55.4526L58.2248 58.0026C58.7248 58.8026 59.0248 59.3026 59.1248 59.5026L59.4248 63.1026C59.4248 64.4026 59.1248 65.8526 58.5248 67.4526C54.3248 80.3526 47.4748 91.7026 37.9748 101.503C35.9748 103.803 33.1748 106.053 29.5748 108.253C27.6748 109.353 25.6748 110.053 23.5748 110.353ZM22.9748 106.303C23.9748 106.303 25.3748 105.903 27.1748 105.103C29.5748 103.703 32.1748 101.703 34.9748 99.1026C38.6748 95.5026 41.9248 91.5026 44.7248 87.1026C47.6248 82.6026 50.3748 77.5526 52.9748 71.9526C52.9748 71.8526 53.0248 71.6026 53.1248 71.2026C53.3248 70.8026 53.2748 70.4026 52.9748 70.0026H52.6748C52.1748 70.0026 51.7248 70.2026 51.3248 70.6026C50.9248 70.9026 50.6248 71.1026 50.4248 71.2026C41.2248 78.0026 32.9748 85.6526 25.6748 94.1526C25.0748 94.7526 23.6748 96.5526 21.4748 99.5526C20.7748 100.553 20.3248 101.753 20.1248 103.153V103.603C20.1248 104.403 20.3748 105.053 20.8748 105.553C21.4748 106.053 22.1748 106.303 22.9748 106.303ZM79.2365 51.5526C78.6365 51.5526 78.1365 51.3026 77.7365 50.8026C77.3365 50.2026 77.0865 49.5026 76.9865 48.7026C76.9865 46.9026 77.8865 46.0026 79.6865 46.0026C80.4865 46.0026 81.1365 46.2526 81.6365 46.7526C82.2365 47.1526 82.5865 47.7026 82.6865 48.4026C82.6865 49.2026 82.3365 49.9526 81.6365 50.6526C81.0365 51.2526 80.3365 51.5526 79.5365 51.5526H79.2365ZM77.1365 89.6526C76.7365 89.7526 76.2365 89.8026 75.6365 89.8026C74.2365 89.8026 72.9865 89.4026 71.8865 88.6026C70.8865 87.8026 70.1865 86.7526 69.7865 85.4526C69.3865 84.4526 69.1865 82.6526 69.1865 80.0526C70.1865 72.1526 71.6365 65.8526 73.5365 61.1526C74.3365 59.3526 75.0865 58.1026 75.7865 57.4026C76.4865 56.8026 77.2365 56.7526 78.0365 57.2526C78.3365 57.3526 78.5365 57.6026 78.6365 58.0026C78.8365 58.3026 78.8865 58.6026 78.7865 58.9026L77.8865 61.1526C76.5865 63.8526 75.5865 66.7026 74.8865 69.7026C74.2865 72.6026 73.6865 76.0526 73.0865 80.0526V81.1026C73.0865 81.8026 73.1865 82.7526 73.3865 83.9526C73.4865 84.6526 73.8365 85.2026 74.4365 85.6026C75.0365 85.9026 75.6865 85.9526 76.3865 85.7526C77.3865 85.6526 78.2865 85.4026 79.0865 85.0026C79.9865 84.5026 80.9865 83.8026 82.0865 82.9026C85.4865 80.2026 89.1865 76.5526 93.1865 71.9526L97.2365 67.1526C98.4365 65.5526 99.3865 64.3526 100.087 63.5526C100.487 63.0526 101.187 62.4026 102.187 61.6026C102.687 61.1026 103.287 61.1526 103.987 61.7526C104.587 62.1526 104.787 62.7526 104.587 63.5526C104.387 64.2526 104.087 64.8026 103.687 65.2026C100.387 69.5026 97.4365 73.1026 94.8365 76.0026C92.3365 78.9026 89.5865 81.6026 86.5865 84.1026C84.7865 85.7026 83.1365 86.9526 81.6365 87.8526C80.1365 88.7526 78.6365 89.3526 77.1365 89.6526ZM99.5686 81.8526C98.9686 82.1526 98.3686 82.3026 97.7686 82.3026C96.8686 82.3026 96.1186 82.0026 95.5186 81.4026C94.9186 80.7026 94.5686 79.8026 94.4686 78.7026C94.4686 77.6026 94.5186 76.8026 94.6186 76.3026C96.5186 68.8026 99.6186 62.9526 103.919 58.7526C104.419 58.1526 105.169 57.5026 106.169 56.8026C107.769 55.5026 109.419 54.8526 111.119 54.8526C112.619 54.8526 114.119 55.4526 115.619 56.6526C116.319 57.1526 116.769 57.4026 116.969 57.4026C117.269 57.4026 117.719 57.0026 118.319 56.2026C119.119 55.3026 120.219 53.8526 121.619 51.8526L123.569 49.1526C125.069 47.0526 125.819 46.0026 125.819 46.0026C126.719 45.1026 127.619 44.8526 128.519 45.2526C129.519 45.8526 129.769 46.8526 129.269 48.2526L127.319 52.3026C124.619 57.6026 122.619 62.6026 121.319 67.3026C120.319 70.9026 119.819 73.6026 119.819 75.4026C119.819 75.9026 119.969 76.3026 120.269 76.6026C120.569 76.8026 120.919 76.8026 121.319 76.6026C123.119 75.8026 124.469 75.1526 125.369 74.6526C127.669 73.1526 129.519 71.8026 130.919 70.6026C132.319 69.5026 133.569 68.4026 134.669 67.3026L138.269 64.1526C139.869 62.8526 140.719 62.1526 140.819 62.0526C141.419 61.5526 142.019 61.6026 142.619 62.2026C143.319 62.7026 143.519 63.4526 143.219 64.4526C143.219 64.5526 142.919 64.9026 142.319 65.5026C136.619 71.2026 131.469 75.4526 126.869 78.2526C124.069 80.1526 121.669 81.1026 119.669 81.1026C117.169 81.1026 115.919 79.6526 115.919 76.7526C115.919 75.3526 116.119 73.2526 116.519 70.4526C116.719 69.3526 117.169 67.4526 117.869 64.7526C116.669 65.1526 115.769 65.7526 115.169 66.5526C114.669 67.2526 114.319 67.7026 114.119 67.9026C110.019 72.8026 106.519 76.5026 103.619 79.0026C102.119 80.3026 100.769 81.2526 99.5686 81.8526ZM99.1186 76.9026C99.6186 77.0026 100.069 76.8526 100.469 76.4526C104.269 73.2526 108.569 68.6026 113.369 62.5026C113.569 62.4026 113.769 62.1526 113.969 61.7526C114.069 61.5526 114.119 61.3026 114.119 61.0026C114.119 60.4026 113.869 59.9526 113.369 59.6526C112.669 59.1526 111.969 58.9026 111.269 58.9026C111.069 58.9026 110.669 59.0026 110.069 59.2026C109.169 59.5026 108.369 60.0026 107.669 60.7026C102.969 64.8026 100.019 70.1026 98.8186 76.6026C98.8186 76.6026 98.8686 76.6526 98.9686 76.7526C99.0686 76.7526 99.1186 76.8026 99.1186 76.9026ZM136.587 93.2526C136.187 93.5526 135.687 93.7026 135.087 93.7026C134.587 93.7026 134.137 93.5526 133.737 93.2526C133.337 92.8526 133.087 92.3026 132.987 91.6026C132.887 91.2026 132.837 90.5526 132.837 89.6526C133.037 87.8526 133.237 86.6026 133.437 85.9026L134.337 82.7526C135.037 79.7526 135.787 77.0026 136.587 74.5026C138.387 69.5026 141.187 62.0026 144.987 52.0026C145.287 51.3026 146.037 49.8526 147.237 47.6526C147.537 47.1526 147.937 46.8526 148.437 46.7526C148.937 46.5526 149.387 46.6026 149.787 46.9026C150.687 47.4026 150.937 48.2526 150.537 49.4526L149.637 51.2526L140.787 74.2026C140.687 74.5026 140.487 75.0526 140.187 75.8526C139.887 76.6526 139.737 77.4026 139.737 78.1026C139.737 78.8026 139.837 79.3526 140.037 79.7526C143.137 74.1526 147.037 68.6026 151.737 63.1026C153.937 60.7026 155.937 59.0026 157.737 58.0026C158.437 57.6026 159.187 57.4026 159.987 57.4026C161.387 57.4026 162.537 58.2026 163.437 59.8026C163.837 60.6026 164.137 61.8526 164.337 63.5526L165.087 70.9026C165.287 72.7026 165.737 74.2526 166.437 75.5526C166.937 76.6526 167.787 77.0026 168.987 76.6026C170.487 76.1026 172.137 75.0526 173.937 73.4526L176.487 71.0526L181.737 66.1026C183.137 64.9026 184.137 64.0026 184.737 63.4026C185.337 62.8026 185.737 62.4026 185.937 62.2026C186.637 61.5026 187.337 61.5026 188.037 62.2026C188.737 62.8026 188.937 63.5026 188.637 64.3026C188.337 65.1026 187.887 65.8026 187.287 66.4026C186.387 67.3026 183.287 70.1526 177.987 74.9526L175.137 77.5026C173.337 79.2026 171.337 80.2526 169.137 80.6526L167.787 80.8026C165.787 80.8026 164.187 79.7526 162.987 77.6526C161.987 75.7526 161.437 73.9026 161.337 72.1026C160.937 68.4026 160.587 65.4526 160.287 63.2526C160.187 62.6526 159.887 62.3026 159.387 62.2026C158.987 62.0026 158.587 62.1026 158.187 62.5026C156.087 64.4026 154.587 65.9026 153.687 67.0026C148.487 73.1026 143.937 80.1026 140.037 88.0026C139.837 88.3026 139.437 89.1026 138.837 90.4026C138.337 91.6026 137.587 92.5526 136.587 93.2526ZM191.447 89.0526C187.147 89.1526 184.047 88.1526 182.147 86.0526C180.347 83.9526 179.547 81.1026 179.747 77.5026C179.747 76.9026 179.847 76.1026 180.047 75.1026C182.247 66.5026 186.497 59.4526 192.797 53.9526C194.597 52.4526 196.447 51.7026 198.347 51.7026C199.747 51.7026 201.097 52.0526 202.397 52.7526C203.997 53.5526 204.897 54.8026 205.097 56.5026C205.197 57.0026 205.247 57.7026 205.247 58.6026C205.247 61.8026 204.197 64.6026 202.097 67.0026C201.897 67.3026 201.497 67.5526 200.897 67.7526L200.597 67.9026C200.397 67.9026 200.147 67.8026 199.847 67.6026C199.647 67.4026 199.547 67.2026 199.547 67.0026V66.7026C199.547 66.0026 199.847 65.1526 200.447 64.1526C201.547 62.1526 201.947 60.3026 201.647 58.6026C201.547 57.7026 201.247 57.0026 200.747 56.5026C200.247 55.9026 199.597 55.6026 198.797 55.6026C198.497 55.6026 198.047 55.7026 197.447 55.9026C196.447 56.2026 195.497 56.8026 194.597 57.7026C189.297 62.4026 185.747 68.3526 183.947 75.5526C183.647 76.7526 183.497 77.9026 183.497 79.0026C183.497 81.0026 184.097 82.5526 185.297 83.6526C186.597 84.7526 188.397 85.3026 190.697 85.3026C193.597 85.3026 197.047 84.4026 201.047 82.6026C204.847 81.1026 208.647 78.9026 212.447 76.0026C214.547 74.4026 216.447 72.9526 218.147 71.6526C219.847 70.2526 221.347 69.0026 222.647 67.9026L227.747 63.8526C228.947 62.8526 229.847 62.1526 230.447 61.7526C230.847 61.5526 231.147 61.4526 231.347 61.4526C231.947 61.4526 232.397 61.7026 232.697 62.2026C232.997 62.5026 233.147 62.8526 233.147 63.2526C233.147 63.5526 232.997 63.9526 232.697 64.4526C232.597 64.6526 232.147 65.1526 231.347 65.9526C222.547 73.3526 215.697 78.6526 210.797 81.8526C206.197 84.8526 201.497 87.0026 196.697 88.3026C195.797 88.5026 194.047 88.7526 191.447 89.0526ZM228.182 81.8526C227.582 82.1526 226.982 82.3026 226.382 82.3026C225.482 82.3026 224.732 82.0026 224.132 81.4026C223.532 80.7026 223.182 79.8026 223.082 78.7026C223.082 77.6026 223.132 76.8026 223.232 76.3026C225.132 68.8026 228.232 62.9526 232.532 58.7526C233.032 58.1526 233.782 57.5026 234.782 56.8026C236.382 55.5026 238.032 54.8526 239.732 54.8526C241.232 54.8526 242.732 55.4526 244.232 56.6526C244.932 57.1526 245.382 57.4026 245.582 57.4026C245.882 57.4026 246.332 57.0026 246.932 56.2026C247.732 55.3026 248.832 53.8526 250.232 51.8526L252.182 49.1526C253.682 47.0526 254.432 46.0026 254.432 46.0026C255.332 45.1026 256.232 44.8526 257.132 45.2526C258.132 45.8526 258.382 46.8526 257.882 48.2526L255.932 52.3026C253.232 57.6026 251.232 62.6026 249.932 67.3026C248.932 70.9026 248.432 73.6026 248.432 75.4026C248.432 75.9026 248.582 76.3026 248.882 76.6026C249.182 76.8026 249.532 76.8026 249.932 76.6026C251.732 75.8026 253.082 75.1526 253.982 74.6526C256.282 73.1526 258.132 71.8026 259.532 70.6026C260.932 69.5026 262.182 68.4026 263.282 67.3026L266.882 64.1526C268.482 62.8526 269.332 62.1526 269.432 62.0526C270.032 61.5526 270.632 61.6026 271.232 62.2026C271.932 62.7026 272.132 63.4526 271.832 64.4526C271.832 64.5526 271.532 64.9026 270.932 65.5026C265.232 71.2026 260.082 75.4526 255.482 78.2526C252.682 80.1526 250.282 81.1026 248.282 81.1026C245.782 81.1026 244.532 79.6526 244.532 76.7526C244.532 75.3526 244.732 73.2526 245.132 70.4526C245.332 69.3526 245.782 67.4526 246.482 64.7526C245.282 65.1526 244.382 65.7526 243.782 66.5526C243.282 67.2526 242.932 67.7026 242.732 67.9026C238.632 72.8026 235.132 76.5026 232.232 79.0026C230.732 80.3026 229.382 81.2526 228.182 81.8526ZM227.732 76.9026C228.232 77.0026 228.682 76.8526 229.082 76.4526C232.882 73.2526 237.182 68.6026 241.982 62.5026C242.182 62.4026 242.382 62.1526 242.582 61.7526C242.682 61.5526 242.732 61.3026 242.732 61.0026C242.732 60.4026 242.482 59.9526 241.982 59.6526C241.282 59.1526 240.582 58.9026 239.882 58.9026C239.682 58.9026 239.282 59.0026 238.682 59.2026C237.782 59.5026 236.982 60.0026 236.282 60.7026C231.582 64.8026 228.632 70.1026 227.432 76.6026C227.432 76.6026 227.482 76.6526 227.582 76.7526C227.682 76.7526 227.732 76.8026 227.732 76.9026ZM264.15 102.253C263.35 101.953 262.95 101.453 262.95 100.753C262.95 100.153 263.05 99.1526 263.25 97.7526C263.85 91.8526 264.85 85.0026 266.25 77.2026L267.6 68.6526C268.1 65.1526 269.35 60.1026 271.35 53.5026C273.75 45.3026 275.75 38.6526 277.35 33.5526C278.95 28.3526 280.8 23.2026 282.9 18.1026C285.1 12.9026 286.8 9.00263 288 6.40264C288.4 5.50264 289.5 3.85264 291.3 1.45264C291.9 0.452632 292.7 0.15263 293.7 0.55263C294.6 1.05263 294.95 1.90263 294.75 3.10263C294.55 4.70263 294.25 6.15263 293.85 7.45263C291.75 14.6526 287.95 24.7526 282.45 37.7526C282.15 38.3526 281.8 39.1526 281.4 40.1526C281 41.1526 280.45 42.3026 279.75 43.6026C277.95 46.9026 276.45 50.4026 275.25 54.1026C274.15 57.7026 273.05 62.0526 271.95 67.1526L271.35 70.6026C270.65 73.1026 270.25 75.4026 270.15 77.5026C271.15 77.3026 271.8 76.8526 272.1 76.1526C272.5 75.3526 272.75 74.8526 272.85 74.6526C276.55 68.9526 280.75 64.4026 285.45 61.0026C285.75 60.8026 286.5 60.3026 287.7 59.5026C289 58.7026 290.3 58.1526 291.6 57.8526C292.5 57.5526 293.35 57.4026 294.15 57.4026C297.15 57.4026 298.7 59.2526 298.8 62.9526C298.9 63.8526 298.85 64.9526 298.65 66.2526C298.55 67.5526 298.45 68.5526 298.35 69.2526C298.35 69.5526 298.3 69.9526 298.2 70.4526C298.1 70.9526 298.2 71.3526 298.5 71.6526H298.95C299.45 71.6526 299.9 71.5026 300.3 71.2026C300.7 70.9026 300.95 70.7026 301.05 70.6026C304.05 68.7026 308.75 66.2526 315.15 63.2526L318.45 61.6026C318.75 61.4026 319.2 61.2026 319.8 61.0026C320 60.9026 320.3 60.8526 320.7 60.8526C321.1 60.8526 321.45 60.9526 321.75 61.1526C322.05 61.3526 322.25 61.6026 322.35 61.9026L322.5 62.5026C322.5 63.4026 322.1 64.0026 321.3 64.3026C320.3 65.0026 318.7 65.8526 316.5 66.8526C310.7 69.6526 305 72.8026 299.4 76.3026C296.4 78.3026 294.35 80.5526 293.25 83.0526C290.65 87.8526 287.45 91.7526 283.65 94.7526C282.25 95.8526 280.9 96.4526 279.6 96.5526H279.3C278.4 96.5526 277.65 96.2026 277.05 95.5026C276.55 94.8026 276.4 94.0026 276.6 93.1026C276.9 91.7026 277.85 90.0026 279.45 88.0026C282.35 84.5026 285.55 81.5026 289.05 79.0026C291.45 77.3026 292.95 75.0526 293.55 72.2526C294.55 68.4526 295 65.5526 294.9 63.5526C294.9 61.8526 294.05 61.2526 292.35 61.7526C290.85 62.2526 289.25 63.1026 287.55 64.3026C281.75 68.6026 277.25 74.1026 274.05 80.8026C271.85 85.3026 269.55 91.2526 267.15 98.6526C266.65 100.253 266.35 101.203 266.25 101.503C265.85 102.203 265.15 102.453 264.15 102.253ZM315.887 93.7026C315.187 93.7026 314.637 93.5026 314.237 93.1026C313.737 92.6026 313.487 92.0026 313.487 91.3026C313.487 88.9026 313.537 87.1526 313.637 86.0526C314.437 80.3526 315.737 74.2526 317.537 67.7526C320.437 57.5526 323.487 49.4526 326.687 43.4526C326.887 43.1526 327.137 42.7026 327.437 42.1026C327.737 41.4026 328.137 40.9026 328.637 40.6026C329.137 40.3026 329.587 40.2526 329.987 40.4526C330.487 40.9526 330.787 41.3026 330.887 41.5026V42.1026C330.887 42.7026 330.687 43.4026 330.287 44.2026C329.987 44.9026 329.787 45.4026 329.687 45.7026C327.487 50.3026 325.187 56.4026 322.787 64.0026C321.287 68.6026 319.837 74.1526 318.437 80.6526C318.337 81.0526 318.287 81.4026 318.287 81.7026C318.387 82.0026 318.387 82.3026 318.287 82.6026C318.487 82.7026 318.737 82.7526 319.037 82.7526C319.437 82.7526 319.687 82.6026 319.787 82.3026C319.987 81.9026 320.137 81.6526 320.237 81.5526C321.337 79.6526 321.987 78.5526 322.187 78.2526L327.587 68.8026C329.687 65.4026 331.987 62.4526 334.487 59.9526C335.487 58.9526 336.487 58.1026 337.487 57.4026C338.087 57.1026 338.637 56.9526 339.137 56.9526C340.437 56.9526 341.337 57.6526 341.837 59.0526C342.437 60.3526 342.637 62.1026 342.437 64.3026C342.437 65.4026 342.387 66.7026 342.287 68.2026C342.187 69.7026 342.087 70.8526 341.987 71.6526L342.137 75.1026C342.137 75.4026 342.337 75.6526 342.737 75.8526C343.137 76.0526 343.437 76.0526 343.637 75.8526L346.487 73.1526L351.437 68.3526C352.437 67.5526 353.387 66.9526 354.287 66.5526C355.087 66.3526 355.587 66.2526 355.787 66.2526C357.187 66.2526 358.187 66.9026 358.787 68.2026C358.987 68.6026 359.187 69.0526 359.387 69.5526C359.587 70.0526 359.787 70.5026 359.987 70.9026C360.587 72.1026 361.087 72.9526 361.487 73.4526C362.287 74.3526 363.137 74.8026 364.037 74.8026C364.337 74.8026 364.787 74.7026 365.387 74.5026C367.087 74.0026 368.787 73.0526 370.487 71.6526C373.987 68.7526 377.337 65.8526 380.537 62.9526C380.737 62.8526 380.937 62.6026 381.137 62.2026C381.837 61.7026 382.387 61.4526 382.787 61.4526C383.387 61.4526 383.837 61.7026 384.137 62.2026C384.537 62.6026 384.737 63.0526 384.737 63.5526C384.737 64.0526 384.487 64.5526 383.987 65.0526C383.387 65.8526 382.687 66.5526 381.887 67.1526L372.887 74.8026C371.387 76.0026 369.587 77.1026 367.487 78.1026C366.387 78.5026 365.237 78.7026 364.037 78.7026C361.437 78.7026 359.337 77.4526 357.737 74.9526C357.437 74.6526 357.087 74.0026 356.687 73.0026C356.287 71.9026 355.737 71.1526 355.037 70.7526C353.737 71.4526 352.437 72.5026 351.137 73.9026C349.837 75.3026 348.837 76.3026 348.137 76.9026C347.437 77.8026 346.637 78.6526 345.737 79.4526C344.837 80.2526 343.887 80.8526 342.887 81.2526L341.687 81.5526C340.687 81.5526 339.837 81.0526 339.137 80.0526C338.637 78.9526 338.337 77.8526 338.237 76.7526C338.137 76.0526 338.087 74.9026 338.087 73.3026C338.287 70.3026 338.387 68.0526 338.387 66.5526C338.387 66.2526 338.437 65.9026 338.537 65.5026C338.637 65.1026 338.687 64.7526 338.687 64.4526C338.687 63.5526 338.337 63.0526 337.637 62.9526H337.337C336.837 62.9526 336.337 63.3026 335.837 64.0026C335.437 64.6026 335.137 65.0526 334.937 65.3526C333.137 67.5526 330.937 70.8026 328.337 75.1026L321.137 88.0026C320.037 90.2026 318.937 91.8026 317.837 92.8026C317.237 93.4026 316.587 93.7026 315.887 93.7026ZM379.793 81.8526C379.193 82.1526 378.593 82.3026 377.993 82.3026C377.093 82.3026 376.343 82.0026 375.743 81.4026C375.143 80.7026 374.793 79.8026 374.693 78.7026C374.693 77.6026 374.743 76.8026 374.843 76.3026C376.743 68.8026 379.843 62.9526 384.143 58.7526C384.643 58.1526 385.393 57.5026 386.393 56.8026C387.993 55.5026 389.643 54.8526 391.343 54.8526C392.843 54.8526 394.343 55.4526 395.843 56.6526C396.543 57.1526 396.993 57.4026 397.193 57.4026C397.493 57.4026 397.943 57.0026 398.543 56.2026C399.343 55.3026 400.443 53.8526 401.843 51.8526L403.793 49.1526C405.293 47.0526 406.043 46.0026 406.043 46.0026C406.943 45.1026 407.843 44.8526 408.743 45.2526C409.743 45.8526 409.993 46.8526 409.493 48.2526L407.543 52.3026C404.843 57.6026 402.843 62.6026 401.543 67.3026C400.543 70.9026 400.043 73.6026 400.043 75.4026C400.043 75.9026 400.193 76.3026 400.493 76.6026C400.793 76.8026 401.143 76.8026 401.543 76.6026C403.343 75.8026 404.693 75.1526 405.593 74.6526C407.893 73.1526 409.743 71.8026 411.143 70.6026C412.543 69.5026 413.793 68.4026 414.893 67.3026L418.493 64.1526C420.093 62.8526 420.943 62.1526 421.043 62.0526C421.643 61.5526 422.243 61.6026 422.843 62.2026C423.543 62.7026 423.743 63.4526 423.443 64.4526C423.443 64.5526 423.143 64.9026 422.543 65.5026C416.843 71.2026 411.693 75.4526 407.093 78.2526C404.293 80.1526 401.893 81.1026 399.893 81.1026C397.393 81.1026 396.143 79.6526 396.143 76.7526C396.143 75.3526 396.343 73.2526 396.743 70.4526C396.943 69.3526 397.393 67.4526 398.093 64.7526C396.893 65.1526 395.993 65.7526 395.393 66.5526C394.893 67.2526 394.543 67.7026 394.343 67.9026C390.243 72.8026 386.743 76.5026 383.843 79.0026C382.343 80.3026 380.993 81.2526 379.793 81.8526ZM379.343 76.9026C379.843 77.0026 380.293 76.8526 380.693 76.4526C384.493 73.2526 388.793 68.6026 393.593 62.5026C393.793 62.4026 393.993 62.1526 394.193 61.7526C394.293 61.5526 394.343 61.3026 394.343 61.0026C394.343 60.4026 394.093 59.9526 393.593 59.6526C392.893 59.1526 392.193 58.9026 391.493 58.9026C391.293 58.9026 390.893 59.0026 390.293 59.2026C389.393 59.5026 388.593 60.0026 387.893 60.7026C383.193 64.8026 380.243 70.1026 379.043 76.6026C379.043 76.6026 379.093 76.6526 379.193 76.7526C379.293 76.7526 379.343 76.8026 379.343 76.9026ZM414.562 105.553C414.162 105.553 413.812 105.403 413.512 105.103C413.212 104.803 413.062 104.403 413.062 103.903C413.062 103.103 413.162 101.803 413.362 100.003L414.862 90.4026C414.962 90.0026 415.012 89.4526 415.012 88.7526C415.012 87.8526 414.912 86.6026 414.712 85.0026C414.712 84.4026 415.062 83.6026 415.762 82.6026C416.462 81.6026 416.862 80.8026 416.962 80.2026C417.462 77.6026 418.262 74.1026 419.362 69.7026C419.362 69.6026 419.412 69.3026 419.512 68.8026C419.612 68.3026 419.462 67.8526 419.062 67.4526C418.462 66.9526 418.162 66.3526 418.162 65.6526C418.162 65.0526 418.412 64.3526 418.912 63.5526C420.512 61.1526 421.862 58.7526 422.962 56.3526C424.062 53.8526 425.512 50.3526 427.312 45.8526C429.612 39.7526 433.162 32.0026 437.962 22.6026C439.162 20.2026 440.312 18.4526 441.412 17.3526C442.312 16.5526 443.212 16.4526 444.112 17.0526C444.912 17.5526 445.212 18.2526 445.012 19.1526C444.712 20.2526 444.312 21.5026 443.812 22.9026C439.312 33.5026 434.912 42.4526 430.612 49.7526C429.112 52.2526 427.912 54.9026 427.012 57.7026C424.912 64.2026 423.312 69.7026 422.212 74.2026C422.212 74.3026 422.162 74.6026 422.062 75.1026C421.962 75.5026 422.012 75.9026 422.212 76.3026C422.912 75.9026 423.462 75.3526 423.862 74.6526C424.262 73.9526 424.562 73.4526 424.762 73.1526C427.462 68.5526 429.962 64.9026 432.262 62.2026C433.862 60.2026 435.612 58.5026 437.512 57.1026C438.712 56.3026 439.762 55.8526 440.662 55.7526C441.562 55.6526 442.312 55.9026 442.912 56.5026C443.612 57.1026 443.962 57.8526 443.962 58.7526C443.962 59.6526 443.762 60.5526 443.362 61.4526C442.962 62.2526 442.362 63.2526 441.562 64.4526C439.162 68.3526 435.612 72.4026 430.912 76.6026C431.112 76.4026 429.212 78.0026 425.212 81.4026C424.912 81.7026 424.812 82.1026 424.912 82.6026C425.012 83.1026 425.362 83.3526 425.962 83.3526C426.662 83.3526 427.612 83.3026 428.812 83.2026C430.012 83.1026 431.012 83.0026 431.812 82.9026C441.912 81.3026 450.612 77.4026 457.912 71.2026C459.212 70.2026 461.062 68.6026 463.462 66.4026L467.212 63.1026C468.612 61.9026 469.512 61.2026 469.912 61.0026C470.112 60.9026 470.362 60.8526 470.662 60.8526C471.062 60.8526 471.512 61.1026 472.012 61.6026C472.512 62.3026 472.562 62.9026 472.162 63.4026C471.962 63.8026 471.562 64.3026 470.962 64.9026C468.462 67.2026 465.862 69.5526 463.162 71.9526C460.562 74.2526 458.012 76.2526 455.512 77.9526C447.112 83.6526 437.612 86.7526 427.012 87.2526C426.312 87.2526 425.362 87.2526 424.162 87.2526C422.962 87.2526 422.162 87.5526 421.762 88.1526C421.462 88.7526 420.962 90.1026 420.262 92.2026C419.562 94.2026 418.612 97.2026 417.412 101.203L416.512 104.503C416.212 105.403 415.562 105.753 414.562 105.553ZM429.262 73.1526C430.762 72.1526 432.862 70.1526 435.562 67.1526C438.362 64.0526 439.912 61.8026 440.212 60.4026C438.312 60.7026 436.262 62.3026 434.062 65.2026C431.862 68.0026 430.262 70.6526 429.262 73.1526ZM472.037 88.9026C470.137 88.9026 468.487 88.4526 467.087 87.5526C465.787 86.5526 464.887 85.1526 464.387 83.3526C463.687 81.3526 463.387 79.6526 463.487 78.2526C463.387 76.4526 463.737 74.1526 464.537 71.3526C466.437 65.3526 469.337 60.5026 473.237 56.8026C474.737 55.4026 476.137 54.3526 477.437 53.6526C478.837 52.8526 480.387 52.4526 482.087 52.4526C483.587 52.4526 484.737 52.9526 485.537 53.9526C486.437 54.9526 486.787 56.3026 486.587 58.0026C486.187 61.0026 484.937 63.6026 482.837 65.8026C480.337 68.5026 478.037 70.6526 475.937 72.2526C473.837 73.7526 471.437 74.6526 468.737 74.9526C468.137 75.0526 467.737 75.5026 467.537 76.3026C467.437 76.7026 467.387 77.3026 467.387 78.1026C467.387 79.5026 467.587 80.6526 467.987 81.5526C468.587 84.3526 470.287 85.5026 473.087 85.0026C474.887 84.6026 477.037 83.8026 479.537 82.6026C483.437 80.5026 487.037 77.9526 490.337 74.9526L500.987 64.9026L503.837 62.2026C504.637 61.5026 505.387 61.5026 506.087 62.2026C506.787 62.9026 506.937 63.6526 506.537 64.4526C506.337 64.8526 505.937 65.3526 505.337 65.9526C499.337 72.0526 494.337 76.7526 490.337 80.0526C486.837 82.9526 483.287 85.2526 479.687 86.9526C476.687 88.2526 474.137 88.9026 472.037 88.9026ZM470.687 70.4526C475.787 67.7526 479.287 64.7026 481.187 61.3026C482.087 59.9026 482.537 58.7526 482.537 57.8526C482.437 56.8526 481.987 56.4526 481.187 56.6526C480.287 56.7526 479.387 57.1026 478.487 57.7026C474.487 60.3026 471.487 64.2526 469.487 69.5526C469.487 70.0526 469.587 70.3026 469.787 70.3026C470.287 70.5026 470.587 70.5526 470.687 70.4526ZM532.418 83.5026C532.018 83.6026 531.518 83.6526 530.918 83.6526C528.418 83.6526 526.718 82.2026 525.818 79.3026C525.518 78.2026 525.368 76.2026 525.368 73.3026L526.418 65.6526C526.418 65.4526 526.468 65.1026 526.568 64.6026C526.768 64.0026 526.618 63.6526 526.118 63.5526H525.818C525.418 63.5526 525.068 63.7526 524.768 64.1526C524.468 64.4526 524.268 64.6526 524.168 64.7526C521.368 67.5526 519.968 68.9526 519.968 68.9526C516.068 72.8526 512.718 75.7026 509.918 77.5026C508.118 78.7026 506.718 79.5026 505.718 79.9026C505.118 80.1026 504.618 80.2026 504.218 80.2026C503.418 80.2026 502.668 79.9526 501.968 79.4526C501.368 78.8526 501.018 78.1026 500.918 77.2026C500.718 76.4026 500.618 75.7526 500.618 75.2526L500.768 73.7526C501.568 67.5526 503.368 62.0026 506.168 57.1026L507.368 55.4526C507.968 54.8526 508.518 54.5526 509.018 54.5526C509.518 54.5526 509.918 54.7026 510.218 55.0026C510.718 55.5026 510.968 55.9526 510.968 56.3526C510.968 56.6526 510.818 57.0526 510.518 57.5526L509.018 60.1026C506.918 64.0026 505.468 68.5026 504.668 73.6026V74.2026C504.668 74.8026 504.868 75.1526 505.268 75.2526C505.368 75.3526 505.568 75.4026 505.868 75.4026C506.068 75.4026 506.468 75.2026 507.068 74.8026L511.718 71.3526C515.818 67.9526 520.518 63.1526 525.818 56.9526C528.618 54.1526 530.018 52.7526 530.018 52.7526C530.618 52.1526 531.368 52.0526 532.268 52.4526C532.668 52.5526 532.968 52.8026 533.168 53.2026C533.368 53.6026 533.418 54.0026 533.318 54.4026C533.018 56.1026 532.668 57.5526 532.268 58.7526C530.868 63.0526 529.918 67.6526 529.418 72.5526L529.268 74.8026C529.268 78.1026 530.018 79.7526 531.518 79.7526C532.118 79.7526 532.768 79.6026 533.468 79.3026C535.668 78.5026 537.768 77.2526 539.768 75.5526C543.168 72.8526 546.768 69.3026 550.568 64.9026C551.468 63.9026 552.418 62.9526 553.418 62.0526C553.618 61.8526 553.918 61.8026 554.318 61.9026C554.718 61.9026 555.018 62.0026 555.218 62.2026C556.018 62.9026 556.218 63.6026 555.818 64.3026C555.418 65.1026 555.068 65.6526 554.768 65.9526C550.168 71.4526 545.868 75.7526 541.868 78.8526C539.468 80.6526 537.568 81.8526 536.168 82.4526C534.668 83.0526 533.418 83.4026 532.418 83.5026ZM541.283 132.703C540.083 132.703 539.483 131.903 539.483 130.303C539.483 128.203 539.633 126.103 539.933 124.003C542.333 102.303 546.883 81.4026 553.583 61.3026C554.483 58.5026 556.033 54.4026 558.233 49.0026L560.183 43.9026C560.683 42.7026 561.433 41.2526 562.433 39.5526C562.733 38.9526 563.233 38.6526 563.933 38.6526C565.133 38.6526 565.533 39.4026 565.133 40.9026C565.133 41.1026 565.033 41.4026 564.833 41.8026C557.933 58.6026 552.283 77.3526 547.883 98.0526C547.783 98.5526 547.583 99.5526 547.283 101.053C546.883 102.553 546.733 103.953 546.833 105.253C547.633 104.853 548.183 104.303 548.483 103.603C548.683 102.903 548.833 102.453 548.933 102.253C552.133 94.4526 556.683 85.6026 562.583 75.7026C566.083 69.6026 570.083 64.4526 574.583 60.2526C577.183 57.8526 579.233 56.2026 580.733 55.3026C582.333 54.4026 583.483 53.8526 584.183 53.6526C585.083 53.3526 585.833 53.2026 586.433 53.2026C588.633 53.2026 590.133 54.5526 590.933 57.2526C591.333 58.3526 591.533 59.6026 591.533 61.0026C591.533 62.0026 591.483 62.9026 591.383 63.7026C591.283 64.4026 591.183 65.0026 591.083 65.5026V65.8026C591.083 66.3026 591.233 66.6526 591.533 66.8526C591.833 66.9526 592.183 66.9026 592.583 66.7026C593.183 66.5026 594.083 66.1026 595.283 65.5026L605.783 61.4526C606.183 61.2526 606.783 61.0526 607.583 60.8526C608.183 60.6526 608.683 60.5526 609.083 60.5526H609.233C609.733 60.5526 610.133 60.7526 610.433 61.1526C610.833 61.4526 611.083 61.8026 611.183 62.2026V62.5026C611.183 63.3026 610.783 63.8526 609.983 64.1526C605.883 65.5526 603.283 66.5026 602.183 67.0026C600.183 67.8026 598.683 68.4526 597.683 68.9526L593.183 70.9026C590.783 72.0026 589.083 73.8526 588.083 76.4526C585.583 83.3526 581.283 89.2526 575.183 94.1526C573.383 95.4526 572.033 96.3026 571.133 96.7026C570.433 97.1026 569.683 97.3026 568.883 97.3026C567.783 97.3026 566.883 96.9026 566.183 96.1026C565.483 95.4026 565.133 94.4026 565.133 93.1026C565.133 91.3026 565.683 89.5526 566.783 87.8526C568.383 85.2526 570.233 83.0026 572.333 81.1026C576.133 77.5026 579.833 74.5526 583.433 72.2526C585.633 70.8526 586.783 69.0026 586.883 66.7026C586.983 65.9026 587.133 64.9526 587.333 63.8526C587.533 62.7526 587.633 61.8026 587.633 61.0026C587.633 60.6026 587.533 59.9026 587.333 58.9026C586.933 57.6026 586.083 57.1526 584.783 57.5526C582.983 58.3526 581.083 59.6526 579.083 61.4526C574.683 65.2526 570.383 70.5526 566.183 77.3526C556.583 92.9526 549.383 109.553 544.583 127.153C544.283 128.253 543.883 129.503 543.383 130.903C542.883 132.103 542.183 132.703 541.283 132.703ZM569.633 92.3526C570.033 92.7526 570.483 92.7526 570.983 92.3526C576.683 88.2526 580.383 83.8526 582.083 79.1526C582.583 78.9526 582.683 78.7026 582.383 78.4026C582.183 78.2026 581.983 78.3026 581.783 78.7026C578.483 80.4026 574.983 83.5526 571.283 88.1526C570.883 88.7526 570.533 89.3026 570.233 89.8026C569.933 90.3026 569.683 90.7026 569.483 91.0026C569.283 91.7026 569.333 92.1526 569.633 92.3526Z" fill="currentColor"/>
</svg>
