<svg width="20" height="20" viewBox="0 0 20 20" fill="none" xmlns="http://www.w3.org/2000/svg">
<g clip-path="url(#clip0)">
<path d="M1.24976 1.36083C-0.321907 2.99333 -0.000240854 4.7275 -0.000240854 9.99583C-0.000240854 14.3708 -0.763574 18.7567 3.23143 19.7892C4.47893 20.11 15.5323 20.11 16.7781 19.7875C18.4414 19.3583 19.7948 18.0092 19.9798 15.6567C20.0056 15.3283 20.0056 4.66916 19.9789 4.33416C19.7823 1.82833 18.2398 0.384165 16.2073 0.0916647C15.7414 0.0241646 15.6481 0.00416464 13.2581 -2.02627e-06C4.78059 0.00416464 2.92226 -0.373335 1.24976 1.36083V1.36083Z" fill="#F5C7B0"/>
<path d="M9.99785 2.61577C6.97202 2.61577 4.09869 2.3466 3.00119 5.16327C2.54785 6.3266 2.61369 7.83744 2.61369 10.0008C2.61369 11.8991 2.55285 13.6833 3.00119 14.8374C4.09619 17.6558 6.99285 17.3858 9.99619 17.3858C12.8937 17.3858 15.8812 17.6874 16.992 14.8374C17.4462 13.6624 17.3795 12.1741 17.3795 10.0008C17.3795 7.11577 17.5387 5.25327 16.1395 3.85494C14.7229 2.43827 12.807 2.61577 9.99452 2.61577H9.99785ZM9.33619 3.9466C15.6479 3.9366 16.4512 3.23494 16.0079 12.9824C15.8504 16.4299 13.2254 16.0516 9.99869 16.0516C4.11535 16.0516 3.94619 15.8833 3.94619 9.99744C3.94619 4.04327 4.41285 3.94994 9.33619 3.94494V3.9466ZM13.9395 5.17244C13.4504 5.17244 13.0537 5.5691 13.0537 6.05827C13.0537 6.54744 13.4504 6.9441 13.9395 6.9441C14.4287 6.9441 14.8254 6.54744 14.8254 6.05827C14.8254 5.5691 14.4287 5.17244 13.9395 5.17244V5.17244ZM9.99785 6.20827C7.90369 6.20827 6.20619 7.9066 6.20619 10.0008C6.20619 12.0949 7.90369 13.7924 9.99785 13.7924C12.092 13.7924 13.7887 12.0949 13.7887 10.0008C13.7887 7.9066 12.092 6.20827 9.99785 6.20827V6.20827ZM9.99785 7.5391C13.252 7.5391 13.2562 12.4624 9.99785 12.4624C6.74452 12.4624 6.73952 7.5391 9.99785 7.5391Z" fill="#373737"/>
</g>
<defs>
<clipPath id="clip0">
<rect width="20" height="20" fill="white"/>
</clipPath>
</defs>
</svg>
